<svg xmlns="http://www.w3.org/2000/svg" viewBox="0 0 185.25 82.19"><defs><style>.cls-1{fill:#425584;}.cls-2{fill:#464e67;}.cls-3{fill:#a37a9d;fill-rule:evenodd;}</style></defs><title>Asset 1</title><g id="Layer_2" data-name="Layer 2"><g id="Laag_1" data-name="Laag 1"><path class="cls-1" d="M43.56,61.44h-10l-1.83,7.4H24.15l9.34-37.11H43.67L53,68.84H45.45ZM41.73,54.1,38.61,41.75,35.5,54.1Z"/><path class="cls-1" d="M77.45,61.44h-10l-1.84,7.4H58l9.35-37.11H77.56L86.9,68.84H79.34ZM75.61,54.1,72.49,41.75,69.38,54.1Z"/><path class="cls-1" d="M116.56,48.09A12.16,12.16,0,0,1,108,68.84H91.91V31.73h15.86a10.07,10.07,0,0,1,10.07,10.13,10.18,10.18,0,0,1-1.78,5.73ZM99.31,44.53h8.46a2.72,2.72,0,0,0,2.72-2.67V41.8a2.71,2.71,0,0,0-2.72-2.67H99.31Zm13.46,12.18A4.78,4.78,0,0,0,108,51.93H99.31v9.51H108a4.75,4.75,0,0,0,4.78-4.73Z"/><path class="cls-1" d="M124.57,50.31a18.81,18.81,0,1,1,18.81,18.75A18.78,18.78,0,0,1,124.57,50.31Zm7.35,0a11.43,11.43,0,1,0,11.46-11.46A11.47,11.47,0,0,0,131.92,50.31Z"/><path class="cls-2" d="M28.92,77a.31.31,0,0,1,.08.23v4.56a.29.29,0,0,1-.08.22.31.31,0,0,1-.44,0,.29.29,0,0,1-.08-.22V81.1a2.15,2.15,0,0,1-.76.77,2.08,2.08,0,0,1-1.11.32,2.16,2.16,0,0,1-1.22-.36,2.43,2.43,0,0,1-.85-1,3.27,3.27,0,0,1,0-2.78,2.4,2.4,0,0,1,.86-1,2.19,2.19,0,0,1,1.2-.35,2.25,2.25,0,0,1,1.12.29,2,2,0,0,1,.76.78v-.63a.31.31,0,0,1,.08-.23.31.31,0,0,1,.44,0Zm-1.38,4.35a1.91,1.91,0,0,0,.66-.77,2.5,2.5,0,0,0,.24-1.1,2.44,2.44,0,0,0-.24-1.08,1.89,1.89,0,0,0-.66-.76,1.66,1.66,0,0,0-.95-.28,1.73,1.73,0,0,0-.95.27,1.89,1.89,0,0,0-.66.76,2.39,2.39,0,0,0-.24,1.09,2.5,2.5,0,0,0,.24,1.1,1.82,1.82,0,0,0,.65.77,1.77,1.77,0,0,0,1.91,0Z"/><path class="cls-2" d="M35.63,74.67a.27.27,0,0,1,.09.21v6.9a.29.29,0,0,1-.09.22.27.27,0,0,1-.21.09A.28.28,0,0,1,35.2,82a.29.29,0,0,1-.09-.22v-.71a2.17,2.17,0,0,1-.75.79,2,2,0,0,1-1.12.33A2.22,2.22,0,0,1,32,81.84a2.43,2.43,0,0,1-.85-1,3,3,0,0,1-.32-1.39,3,3,0,0,1,.32-1.38,2.36,2.36,0,0,1,.85-1,2.19,2.19,0,0,1,1.2-.35,2.15,2.15,0,0,1,1.11.3,2.06,2.06,0,0,1,.77.78v-3a.27.27,0,0,1,.09-.21.28.28,0,0,1,.22-.09A.27.27,0,0,1,35.63,74.67Zm-1.38,6.67a1.82,1.82,0,0,0,.66-.76,2.5,2.5,0,0,0,.24-1.1,2.45,2.45,0,0,0-.24-1.09,1.89,1.89,0,0,0-.66-.76,1.73,1.73,0,0,0-1.89,0,1.89,1.89,0,0,0-.66.76,2.45,2.45,0,0,0-.24,1.09,2.42,2.42,0,0,0,.24,1.09,1.91,1.91,0,0,0,.66.77,1.73,1.73,0,0,0,1.89,0Z"/><path class="cls-2" d="M42,76.87a.23.23,0,0,1,.09.18.37.37,0,0,1,0,.18l-2,4.66A.41.41,0,0,1,40,82a.24.24,0,0,1-.15.06.32.32,0,0,1-.19,0,.31.31,0,0,1-.12-.15l-2-4.66a.13.13,0,0,0,0-.06.29.29,0,0,1,0-.09.25.25,0,0,1,.09-.2.29.29,0,0,1,.23-.09.27.27,0,0,1,.17.06.26.26,0,0,1,.11.14l1.73,4.11L41.54,77a.33.33,0,0,1,.12-.14.23.23,0,0,1,.18,0A.3.3,0,0,1,42,76.87Z"/><path class="cls-2" d="M43.86,76a.34.34,0,0,1-.11-.27v-.11a.32.32,0,0,1,.12-.27.46.46,0,0,1,.32-.1c.27,0,.4.12.4.37v.11a.33.33,0,0,1-.1.27.43.43,0,0,1-.31.1A.46.46,0,0,1,43.86,76Zm.54,6a.31.31,0,0,1-.53-.22V77.12A.28.28,0,0,1,44,76.9a.31.31,0,0,1,.44,0,.31.31,0,0,1,.08.22v4.66A.33.33,0,0,1,44.4,82Z"/><path class="cls-2" d="M51,79.4a.29.29,0,0,1-.21.09H46.92a2.3,2.3,0,0,0,.25,1.09,1.85,1.85,0,0,0,.71.76,2,2,0,0,0,1.09.28,1.92,1.92,0,0,0,.87-.2,1.87,1.87,0,0,0,.62-.52.32.32,0,0,1,.21-.09.27.27,0,0,1,.26.26.26.26,0,0,1-.1.21,2.48,2.48,0,0,1-.81.65,2.26,2.26,0,0,1-1,.26,2.82,2.82,0,0,1-1.38-.34,2.36,2.36,0,0,1-.94-.94,2.83,2.83,0,0,1-.33-1.39,3.08,3.08,0,0,1,.33-1.46,2.38,2.38,0,0,1,.88-1,2.19,2.19,0,0,1,1.16-.33,2.35,2.35,0,0,1,1.14.28,2.19,2.19,0,0,1,.87.84,2.53,2.53,0,0,1,.35,1.29A.27.27,0,0,1,51,79.4Zm-3.35-1.63A1.9,1.9,0,0,0,47,78.94h3.46v-.08a1.7,1.7,0,0,0-.31-.8,1.64,1.64,0,0,0-.63-.51,1.86,1.86,0,0,0-.79-.18A1.71,1.71,0,0,0,47.61,77.77Z"/><path class="cls-2" d="M52.55,81a.33.33,0,0,1,.29-.26.28.28,0,0,1,.22.1,1.9,1.9,0,0,0,1.6.79,1.55,1.55,0,0,0,.84-.23.73.73,0,0,0,.36-.66.7.7,0,0,0-.33-.64,3.32,3.32,0,0,0-.93-.37,3.72,3.72,0,0,1-1.32-.55,1.15,1.15,0,0,1-.48-1,1.27,1.27,0,0,1,.23-.74,1.57,1.57,0,0,1,.64-.52,2.17,2.17,0,0,1,.91-.18,2.45,2.45,0,0,1,.87.17,1.84,1.84,0,0,1,.76.53.25.25,0,0,1,.09.2.28.28,0,0,1-.1.22A.28.28,0,0,1,56,78a.29.29,0,0,1-.19-.08,1.42,1.42,0,0,0-.58-.42,1.89,1.89,0,0,0-.72-.14,1.42,1.42,0,0,0-.81.22.74.74,0,0,0-.34.67.71.71,0,0,0,.37.62,3.68,3.68,0,0,0,1,.38,4.84,4.84,0,0,1,.87.3,1.41,1.41,0,0,1,.56.46,1.37,1.37,0,0,1-.31,1.83,2.11,2.11,0,0,1-1.3.39,2.36,2.36,0,0,1-2-.93A.37.37,0,0,1,52.55,81Z"/><path class="cls-2" d="M67.5,81.77a.29.29,0,0,1-.08.19.25.25,0,0,1-.2.09A.31.31,0,0,1,67,82l-.22-.17c-.31-.23-.58-.43-.79-.62a3,3,0,0,1-1,.72,3.52,3.52,0,0,1-1.37.26,2.44,2.44,0,0,1-1.26-.33,2.37,2.37,0,0,1-.88-.87,2.13,2.13,0,0,1-.31-1.12,2.2,2.2,0,0,1,.38-1.23,2.47,2.47,0,0,1,1.14-.86,2.34,2.34,0,0,1-.43-1.23,1.58,1.58,0,0,1,.9-1.45,2.28,2.28,0,0,1,1-.22,2.42,2.42,0,0,1,1.18.27,1.55,1.55,0,0,1,.7.66.45.45,0,0,1,0,.19.25.25,0,0,1-.08.18.31.31,0,0,1-.21.07.22.22,0,0,1-.22-.11,1.74,1.74,0,0,0-.56-.52,1.83,1.83,0,0,0-.86-.18,1.34,1.34,0,0,0-.94.3,1,1,0,0,0-.33.81,1.85,1.85,0,0,0,.32.94,7.49,7.49,0,0,0,.86,1.12,19.09,19.09,0,0,0,1.86,1.78,4.17,4.17,0,0,0,.48-1.32.29.29,0,0,1,.09-.15.25.25,0,0,1,.19-.06.26.26,0,0,1,.21.11.3.3,0,0,1,.07.24,3.81,3.81,0,0,1-.59,1.55c.29.23.61.49,1,.76A.33.33,0,0,1,67.5,81.77Zm-1.92-.92a16.57,16.57,0,0,1-2-2c-.24-.28-.41-.49-.52-.63a1.69,1.69,0,0,0-.92.61,1.56,1.56,0,0,0-.29.94,2,2,0,0,0,.21.89,1.72,1.72,0,0,0,.65.66,2,2,0,0,0,1,.26A2.5,2.5,0,0,0,65.58,80.85Z"/><path class="cls-2" d="M73.12,82a.29.29,0,0,1-.22.09.27.27,0,0,1-.21-.09.29.29,0,0,1-.09-.22v-6.9a.31.31,0,0,1,.3-.3.29.29,0,0,1,.22.09.27.27,0,0,1,.09.21v6.9A.29.29,0,0,1,73.12,82Z"/><path class="cls-2" d="M79.83,80.87a2.53,2.53,0,0,1-4.46,0,3,3,0,0,1,0-2.76,2.53,2.53,0,0,1,4.46,0,3,3,0,0,1,0,2.76Zm-.53-2.48a1.9,1.9,0,0,0-.7-.76,1.84,1.84,0,0,0-1-.28,1.76,1.76,0,0,0-1,.28,1.93,1.93,0,0,0-.71.76,2.35,2.35,0,0,0-.26,1.1,2.27,2.27,0,0,0,.26,1.08,2,2,0,0,0,.71.77,1.76,1.76,0,0,0,1,.28,1.9,1.9,0,0,0,1.7-1,2.31,2.31,0,0,0,.26-1.09A2.35,2.35,0,0,0,79.3,78.39Z"/><path class="cls-2" d="M86.47,80.87a2.48,2.48,0,0,1-2.23,1.32,2.57,2.57,0,0,1-1.31-.35,2.6,2.6,0,0,1-.92-1,3.05,3.05,0,0,1,0-2.76,2.53,2.53,0,0,1,.92-1,2.48,2.48,0,0,1,1.31-.36,2.51,2.51,0,0,1,2.23,1.33,3,3,0,0,1,0,2.76ZM86,78.39a1.93,1.93,0,0,0-.71-.76,1.91,1.91,0,0,0-2,0,2,2,0,0,0-.71.76,2.34,2.34,0,0,0-.25,1.1,2.26,2.26,0,0,0,.25,1.08,2,2,0,0,0,.71.77,1.91,1.91,0,0,0,2,0,1.86,1.86,0,0,0,.71-.76,2.3,2.3,0,0,0,.25-1.09A2.34,2.34,0,0,0,86,78.39Z"/><path class="cls-2" d="M92.49,77.33a2.26,2.26,0,0,1,.45,1.47v3a.27.27,0,0,1-.1.22.29.29,0,0,1-.21.09.29.29,0,0,1-.22-.09.33.33,0,0,1-.08-.22v-3A1.65,1.65,0,0,0,92,77.76a1.24,1.24,0,0,0-1-.41,1.8,1.8,0,0,0-1.46.74,1.29,1.29,0,0,0-.25.74v3a.33.33,0,0,1-.08.22.31.31,0,0,1-.44,0,.29.29,0,0,1-.08-.22V77.24a.29.29,0,0,1,.08-.22.31.31,0,0,1,.44,0,.33.33,0,0,1,.08.22v.55a2.21,2.21,0,0,1,.79-.72,2.13,2.13,0,0,1,1-.29A1.64,1.64,0,0,1,92.49,77.33Z"/><path class="cls-2" d="M99.56,77a.32.32,0,0,1,.09.23v4.56a.29.29,0,0,1-.09.22.27.27,0,0,1-.21.09.31.31,0,0,1-.31-.31V81.1a2.21,2.21,0,0,1-1.86,1.09A2.17,2.17,0,0,1,96,81.83a2.51,2.51,0,0,1-.85-1,3.22,3.22,0,0,1,0-2.78,2.38,2.38,0,0,1,.85-1,2.27,2.27,0,0,1,2.32-.06,2,2,0,0,1,.76.78v-.63a.32.32,0,0,1,.09-.23.29.29,0,0,1,.22-.09A.27.27,0,0,1,99.56,77Zm-1.38,4.35a1.91,1.91,0,0,0,.66-.77,2.5,2.5,0,0,0,.24-1.1,2.44,2.44,0,0,0-.24-1.08,1.89,1.89,0,0,0-.66-.76,1.62,1.62,0,0,0-.94-.28,1.7,1.7,0,0,0-.95.27,1.89,1.89,0,0,0-.66.76,2.39,2.39,0,0,0-.24,1.09,2.64,2.64,0,0,0,.23,1.1,1.91,1.91,0,0,0,.66.77,1.67,1.67,0,0,0,1,.28A1.62,1.62,0,0,0,98.18,81.34Z"/><path class="cls-2" d="M106.28,74.67a.26.26,0,0,1,.08.21v6.9a.29.29,0,0,1-.08.22.31.31,0,0,1-.44,0,.33.33,0,0,1-.08-.22v-.71a2.12,2.12,0,0,1-.76.79,2,2,0,0,1-1.11.33,2.2,2.2,0,0,1-1.21-.35,2.53,2.53,0,0,1-.86-1,3,3,0,0,1-.31-1.39,3,3,0,0,1,.31-1.38,2.46,2.46,0,0,1,.86-1,2.19,2.19,0,0,1,1.2-.35,2.15,2.15,0,0,1,1.88,1.08v-3a.3.3,0,0,1,.08-.21.31.31,0,0,1,.44,0Zm-1.38,6.67a1.82,1.82,0,0,0,.66-.76,2.5,2.5,0,0,0,.24-1.1,2.45,2.45,0,0,0-.24-1.09,1.89,1.89,0,0,0-.66-.76,1.75,1.75,0,0,0-1.9,0,1.89,1.89,0,0,0-.66.76,2.45,2.45,0,0,0-.24,1.09,2.42,2.42,0,0,0,.24,1.09,1.91,1.91,0,0,0,.66.77,1.75,1.75,0,0,0,1.9,0Z"/><path class="cls-2" d="M115.79,77.42a2.4,2.4,0,0,1,.43,1.49v2.87a.33.33,0,0,1-.08.22.31.31,0,0,1-.44,0,.29.29,0,0,1-.08-.22V78.94a1.76,1.76,0,0,0-.32-1.09,1.18,1.18,0,0,0-1-.42,1.73,1.73,0,0,0-.81.2,1.64,1.64,0,0,0-.61.56,1.29,1.29,0,0,0-.24.75v2.84a.33.33,0,0,1-.08.22.31.31,0,0,1-.53-.22V78.91a1.76,1.76,0,0,0-.3-1.07,1.11,1.11,0,0,0-.95-.41,1.67,1.67,0,0,0-1.39.75,1.29,1.29,0,0,0-.23.73v2.87a.29.29,0,0,1-.08.22.31.31,0,0,1-.44,0,.29.29,0,0,1-.08-.22V77.24a.29.29,0,0,1,.08-.22.31.31,0,0,1,.44,0,.29.29,0,0,1,.08.22v.59a2.23,2.23,0,0,1,.74-.69,1.88,1.88,0,0,1,1-.28,1.77,1.77,0,0,1,1,.29,1.46,1.46,0,0,1,.61.83,1.82,1.82,0,0,1,.78-.78,2.19,2.19,0,0,1,1.15-.34A1.58,1.58,0,0,1,115.79,77.42Z"/><path class="cls-2" d="M118.39,76a.34.34,0,0,1-.11-.27v-.11a.32.32,0,0,1,.12-.27.46.46,0,0,1,.32-.1c.27,0,.4.12.4.37v.11a.33.33,0,0,1-.1.27.43.43,0,0,1-.31.1A.46.46,0,0,1,118.39,76Zm.54,6a.31.31,0,0,1-.53-.22V77.12a.28.28,0,0,1,.09-.22.31.31,0,0,1,.44,0,.31.31,0,0,1,.08.22v4.66A.33.33,0,0,1,118.93,82Z"/><path class="cls-2" d="M125,77.33a2.26,2.26,0,0,1,.44,1.47v3a.29.29,0,0,1-.09.22.29.29,0,0,1-.21.09A.29.29,0,0,1,125,82a.29.29,0,0,1-.08-.22v-3a1.65,1.65,0,0,0-.33-1.07,1.24,1.24,0,0,0-1-.41,1.8,1.8,0,0,0-1.46.74,1.22,1.22,0,0,0-.25.74v3a.33.33,0,0,1-.08.22.31.31,0,0,1-.53-.22V77.24a.31.31,0,0,1,.53-.22.33.33,0,0,1,.08.22v.55a2.21,2.21,0,0,1,.79-.72,2.13,2.13,0,0,1,1.05-.29A1.64,1.64,0,0,1,125,77.33Z"/><path class="cls-2" d="M127.64,76a.34.34,0,0,1-.11-.27v-.11a.32.32,0,0,1,.12-.27.46.46,0,0,1,.32-.1c.27,0,.41.12.41.37v.11a.34.34,0,0,1-.11.27.43.43,0,0,1-.31.1A.46.46,0,0,1,127.64,76Zm.54,6a.31.31,0,0,1-.53-.22V77.12a.28.28,0,0,1,.09-.22.31.31,0,0,1,.44,0,.31.31,0,0,1,.08.22v4.66A.33.33,0,0,1,128.18,82Z"/><path class="cls-2" d="M130.08,81a.21.21,0,0,1,.13-.2.23.23,0,0,1,.16-.06.32.32,0,0,1,.23.1,1.89,1.89,0,0,0,1.59.79,1.59,1.59,0,0,0,.85-.23.73.73,0,0,0,.36-.66.71.71,0,0,0-.34-.64,3.2,3.2,0,0,0-.93-.37,3.88,3.88,0,0,1-1.32-.55,1.15,1.15,0,0,1-.48-1,1.21,1.21,0,0,1,.24-.74,1.48,1.48,0,0,1,.63-.52,2.21,2.21,0,0,1,.91-.18A2.45,2.45,0,0,1,133,77a1.84,1.84,0,0,1,.76.53.25.25,0,0,1,.09.2.28.28,0,0,1-.1.22.28.28,0,0,1-.18.06.25.25,0,0,1-.18-.08,1.57,1.57,0,0,0-.58-.42,2,2,0,0,0-.72-.14,1.46,1.46,0,0,0-.82.22.74.74,0,0,0-.34.67.73.73,0,0,0,.37.62,3.8,3.8,0,0,0,1,.38,4.84,4.84,0,0,1,.87.3,1.51,1.51,0,0,1,.57.46,1.29,1.29,0,0,1,.21.78,1.24,1.24,0,0,1-.52,1,2.16,2.16,0,0,1-1.31.39,2.37,2.37,0,0,1-2-.93A.46.46,0,0,1,130.08,81Z"/><path class="cls-2" d="M136.83,77.49v3.4a.69.69,0,0,0,.15.52.51.51,0,0,0,.37.14l.15,0,.15,0a.18.18,0,0,1,.15.07.24.24,0,0,1,.07.18.29.29,0,0,1-.16.24.81.81,0,0,1-.39.1,1.88,1.88,0,0,1-.49-.06.77.77,0,0,1-.41-.3,1.34,1.34,0,0,1-.19-.81V77.49h-.74a.29.29,0,0,1-.21-.08.25.25,0,0,1-.09-.2.29.29,0,0,1,.3-.29h.74V75.8a.29.29,0,0,1,.08-.22.31.31,0,0,1,.44,0,.29.29,0,0,1,.08.22v1.12h1a.28.28,0,0,1,.2.09.32.32,0,0,1,.08.21.22.22,0,0,1-.08.19.24.24,0,0,1-.2.08Z"/><path class="cls-2" d="M142.66,76.86a.28.28,0,0,1,.16.24.32.32,0,0,1-.08.23.27.27,0,0,1-.2.09l-.19,0a.72.72,0,0,0-.28-.05,1.19,1.19,0,0,0-.75.29,2.35,2.35,0,0,0-.61.74,2,2,0,0,0-.23.93v2.5A.31.31,0,0,1,140,82a.33.33,0,0,1-.08-.22V77.24A.33.33,0,0,1,140,77a.31.31,0,0,1,.53.22v.89a2.26,2.26,0,0,1,.7-1,1.8,1.8,0,0,1,1.11-.39A.87.87,0,0,1,142.66,76.86Z"/><path class="cls-2" d="M148.69,77a.36.36,0,0,1,.08.23v4.56a.33.33,0,0,1-.08.22.31.31,0,0,1-.53-.22V81.1a2.07,2.07,0,0,1-.76.77,2,2,0,0,1-1.1.32,2.13,2.13,0,0,1-1.22-.36,2.45,2.45,0,0,1-.86-1,3.15,3.15,0,0,1-.31-1.39,3,3,0,0,1,.32-1.39,2.33,2.33,0,0,1,.86-1,2.19,2.19,0,0,1,1.2-.35,2.21,2.21,0,0,1,1.11.29,2,2,0,0,1,.76.78v-.63a.32.32,0,0,1,.09-.23.31.31,0,0,1,.44,0Zm-1.38,4.35a1.91,1.91,0,0,0,.66-.77,2.49,2.49,0,0,0,.23-1.1,2.44,2.44,0,0,0-.23-1.08,1.89,1.89,0,0,0-.66-.76,1.66,1.66,0,0,0-.95-.28,1.73,1.73,0,0,0-1,.27,1.89,1.89,0,0,0-.66.76,2.39,2.39,0,0,0-.24,1.09,2.5,2.5,0,0,0,.24,1.1,1.82,1.82,0,0,0,.65.77,1.77,1.77,0,0,0,1.91,0Z"/><path class="cls-2" d="M152,77.49v3.4a.69.69,0,0,0,.14.52.51.51,0,0,0,.37.14l.16,0,.14,0a.21.21,0,0,1,.16.07.28.28,0,0,1,.06.18.27.27,0,0,1-.16.24.81.81,0,0,1-.39.1A1.75,1.75,0,0,1,152,82a.74.74,0,0,1-.41-.3,1.27,1.27,0,0,1-.2-.81V77.49h-.74a.32.32,0,0,1-.21-.08.25.25,0,0,1-.09-.2.29.29,0,0,1,.09-.21.32.32,0,0,1,.21-.08h.74V75.8a.29.29,0,0,1,.09-.22.27.27,0,0,1,.21-.09.31.31,0,0,1,.31.31v1.12h1a.27.27,0,0,1,.2.09.29.29,0,0,1,.09.21.23.23,0,0,1-.09.19.24.24,0,0,1-.2.08Z"/><path class="cls-2" d="M155,76a.34.34,0,0,1-.11-.27v-.11a.32.32,0,0,1,.12-.27.43.43,0,0,1,.31-.1c.28,0,.41.12.41.37v.11a.34.34,0,0,1-.11.27.41.41,0,0,1-.31.1A.43.43,0,0,1,155,76Zm.53,6a.28.28,0,0,1-.22.09.27.27,0,0,1-.21-.09.29.29,0,0,1-.09-.22V77.12a.28.28,0,0,1,.09-.22.27.27,0,0,1,.21-.09.31.31,0,0,1,.31.31v4.66A.29.29,0,0,1,155.52,82Z"/><path class="cls-2" d="M162.09,79.4a.29.29,0,0,1-.21.09H158a2.43,2.43,0,0,0,.25,1.09,1.92,1.92,0,0,0,.71.76,2,2,0,0,0,1.09.28,1.86,1.86,0,0,0,.87-.2,1.78,1.78,0,0,0,.62-.52.37.37,0,0,1,.22-.09.24.24,0,0,1,.18.08.25.25,0,0,1,.08.18.26.26,0,0,1-.1.21,2.51,2.51,0,0,1-.82.65,2.23,2.23,0,0,1-1,.26,2.82,2.82,0,0,1-1.38-.34,2.28,2.28,0,0,1-.93-.94,2.83,2.83,0,0,1-.34-1.39,3.08,3.08,0,0,1,.33-1.46,2.45,2.45,0,0,1,.88-1,2.25,2.25,0,0,1,1.17-.33,2.4,2.4,0,0,1,1.14.28,2.33,2.33,0,0,1,.87.84,2.52,2.52,0,0,1,.34,1.29A.26.26,0,0,1,162.09,79.4Zm-3.35-1.63a1.91,1.91,0,0,0-.65,1.17h3.46v-.08a1.57,1.57,0,0,0-.94-1.31,1.78,1.78,0,0,0-.78-.18A1.69,1.69,0,0,0,158.74,77.77Z"/><polygon class="cls-3" points="0 25.12 92.62 0 185.25 25.09 185.25 27.85 92.56 2.74 0 27.85 0 25.12 0 25.12"/></g></g></svg>