<svg xmlns="http://www.w3.org/2000/svg" viewBox="0 0 145.37 84.54"><defs><style>.cls-1{fill:#a37a9d;}</style></defs><title>Asset 1</title><g id="Layer_2" data-name="Layer 2"><g id="Laag_1" data-name="Laag 1"><path class="cls-1" d="M146,0a102.55,102.55,0,0,1-32.58,42.35A101,101,0,0,1,59.56,62.6a101.86,101.86,0,0,1-34-3.25c.06,0,0,2.3,0,2.5a13.7,13.7,0,0,0,0,2.5,102.63,102.63,0,0,0,59.85-2,101.31,101.31,0,0,0,44.93-31.29A101.78,101.78,0,0,0,146,5a8,8,0,0,0,0-2.5c0-.59,0-1.18,0-1.77A3,3,0,0,1,146,0Z" transform="translate(-0.76)"/><path class="cls-1" d="M34.05,45.52A102.23,102.23,0,0,0,.91,57.1a21.44,21.44,0,0,0,0,5A241.71,241.71,0,0,0,36.14,84.54a14,14,0,0,1,0-2.5c0-.27.21-2.37,0-2.5A241.71,241.71,0,0,1,.91,57.1v5A102.23,102.23,0,0,1,34.05,50.52c.3-.05-.23-5,0-5Z" transform="translate(-0.76)"/></g></g></svg>